<?xml version="1.0" encoding="UTF-8"?>
<svg id="20thialog" data-name="20thialog" xmlns="http://www.w3.org/2000/svg" viewBox="0 0 358.76 265.98">
      <path d="M351,96.91l-10.98-4.51-10.98-4.52c-.28.67-3.95,9.69-7.98,23.6-17.2-29.45-49.15-49.28-85.64-49.28-54.65,0-99.11,44.46-99.11,99.11,0,29.61,13.06,56.23,33.71,74.4-30.15-7.73-58.17-20.91-77.55-30.56,4.61-6.91,9.07-14.21,13.26-21.75,12.37-22.25,31.61-63.59,21.44-90.58-8.04-21.32-30.67-33.79-53.81-29.66-21.96,3.93-45.54,23.81-45.83,67.83l23.75.16c.25-37.08,20.16-43.52,26.26-44.61,11.88-2.12,23.41,4.04,27.41,14.66,4.74,12.58-3.1,40.32-19.97,70.66-4.39,7.89-9.17,15.6-14.1,22.81-12.42-5.09-23.91-6.98-34.23-5.62-11.53,1.53-21.18,7.03-27.9,15.92-11.32,14.96-11.67,36.89-.78,48.9,3.46,3.82,16.41,15.25,37.77,2.15,9.82-6.02,21.25-17.17,32.58-31.39,30.57,15.35,84.62,41.34,138.05,41.34,25.98,0,51.83-6.19,74.75-22.7h0c9.27-6.32,17.41-14.17,24.06-23.17,5.24,18.74,14.61,34.21,27.96,45.91l15.65-17.87c-50.74-44.44-8.2-150.14-7.77-151.2ZM33.3,235.76c-3.1,1.9-6.76,3.25-7.76,2.15-2.56-2.83-2.81-12.09,2.13-18.61,3.48-4.59,8.86-6.89,15.69-6.89,3.76,0,7.97.7,12.53,2.09-8.18,9.73-16.08,17.27-22.59,21.26ZM235.41,236.66c-41.55,0-75.36-33.8-75.36-75.36s33.8-75.36,75.36-75.36,75.36,33.8,75.36,75.36-33.8,75.36-75.36,75.36Z"/>
      <circle cx="93.51" cy="25.36" r="25.36"/>
</svg>